HIERARCHY
ROOT Hips
{
	OFFSET 0.000000 0.000000 0.000000
	CHANNELS 6 Xposition Yposition Zposition Zrotation Yrotation Xrotation
	JOINT LHipJoint
	{
		OFFSET 0.000000 0.000000 0.000000
		CHANNELS 3 Zrotation Yrotation Xrotation
		JOINT LeftUpLeg
		{
			OFFSET 1.363060 -0.839290 -1.794630
			CHANNELS 3 Zrotation Yrotation Xrotation
			JOINT LeftLeg
			{
				OFFSET 2.448110 0.000001 -6.726130
				CHANNELS 3 Zrotation Yrotation Xrotation
				JOINT LeftFoot
				{
					OFFSET 2.562200 0.000001 -7.039590
					CHANNELS 3 Zrotation Yrotation Xrotation
					JOINT LeftToeBase
					{
						OFFSET 0.157640 -2.322550 -0.433111
						CHANNELS 3 Zrotation Yrotation Xrotation
						End Site
						{
							OFFSET 0.000000 0.000000 0.100000
						}
					}
				}
			}
		}
	}
}
MOTION
Frames: 29
Frame Time: 0.041667
0.000000 0.000000 0.000000 -13.100711 3.062457 1.160332 -0.569293 7.069049 -1.399250 -3.907060 6.999429 -28.874512 6.203455 2.244078 14.403552 18.912234 5.505401 12.846434 -3.480043 -0.292355 -9.600329 
0.000000 0.000000 0.000000 -13.340826 2.918379 1.080457 -0.527978 7.096724 -1.379313 -3.829329 7.330498 -28.805090 6.235967 2.254661 14.514881 18.952394 5.559545 12.420483 -2.882117 -0.200052 -7.940734 
0.000000 0.000000 0.000000 -13.474559 2.803776 1.103802 -0.513304 7.108699 -1.362316 -3.682295 7.700599 -28.851187 6.315127 2.239078 14.753335 18.910965 5.538326 12.405454 -3.105724 -0.232456 -8.560590 
0.000000 0.000000 0.000000 -13.604969 2.601558 1.252772 -0.519136 7.094122 -1.344074 -3.274721 8.276936 -29.062544 6.478111 2.198440 15.216157 18.598796 5.366041 12.772240 -3.789168 -0.347039 -10.461120 
0.000000 0.000000 0.000000 -13.779049 2.647533 1.392974 -0.508307 7.048625 -1.310299 -3.070809 8.526170 -29.139827 6.719092 2.107371 15.896292 18.204730 5.178534 13.080709 -4.040296 -0.394919 -11.161909 
0.000000 0.000000 0.000000 -13.873623 2.902075 1.565462 -0.486722 6.992314 -1.297889 -3.196020 8.483828 -29.115850 7.000816 1.979152 16.681009 17.915588 5.047437 13.308235 -3.601255 -0.313179 -9.937595 
0.000000 0.000000 0.000000 -13.799571 2.781789 1.640015 -0.452231 6.977463 -1.292755 -3.258299 8.857774 -29.167227 7.335554 1.818954 17.583825 18.030222 5.021436 13.923280 -3.495545 -0.294946 -9.643587 
0.000000 0.000000 0.000000 -13.710609 2.650543 1.591050 -0.393369 6.967443 -1.278700 -3.353963 9.193371 -29.158375 7.730967 1.589281 18.581045 18.889602 5.282752 14.487231 -3.803769 -0.349733 -10.501956 
0.000000 0.000000 0.000000 -13.681200 2.756275 1.625675 -0.334402 6.892482 -1.287004 -3.608918 9.243047 -29.160806 8.139857 1.323293 19.605578 19.999381 5.701578 14.470094 -3.659159 -0.323442 -10.098822 
0.000000 0.000000 0.000000 -13.631787 2.701874 1.677027 -0.296180 6.817469 -1.319176 -3.955425 9.396467 -29.244934 8.508279 1.086563 20.593587 20.696873 5.975866 14.266248 -2.748114 -0.181792 -7.569378 
0.000000 0.000000 0.000000 -13.571781 2.633937 1.553459 -0.250740 6.721749 -1.292858 -4.046464 9.621555 -29.271503 8.859797 0.876965 21.622506 20.566396 5.934304 14.187987 -1.126701 -0.030495 -3.097002 
0.000000 0.000000 0.000000 -13.409337 2.832179 1.426988 -0.227575 6.643203 -1.192753 -3.848146 9.619253 -29.175245 9.140127 0.705434 22.495508 19.867991 5.667185 14.392076 0.372098 -0.003295 1.022479 
0.000000 0.000000 0.000000 -13.080682 2.906469 1.501927 -0.235101 6.599751 -1.124347 -3.767124 9.753447 -29.171864 9.341433 0.586363 23.196229 18.970944 5.310169 14.705780 1.114599 -0.029794 3.063625 
0.000000 0.000000 0.000000 -12.685460 2.297835 1.589026 -0.231569 6.645510 -1.021441 -3.830645 10.554648 -29.150038 9.473733 0.518975 23.858319 18.007372 4.964780 14.633697 1.413901 -0.047985 3.887318 
0.000000 0.000000 0.000000 -12.510640 1.459028 1.563659 -0.206568 6.684957 -0.873926 -3.733129 11.602577 -29.101752 9.613656 0.447076 24.578840 17.116509 4.691100 14.135849 1.731001 -0.071965 4.760628 
0.000000 0.000000 0.000000 -12.373281 1.074952 1.462190 -0.167132 6.700699 -0.727484 -3.683746 12.187961 -28.917426 9.752810 0.355686 25.218249 16.504322 4.526215 13.600442 1.874104 -0.084355 5.155043 
0.000000 0.000000 0.000000 -12.120718 1.029329 1.418859 -0.128198 6.706772 -0.608239 -3.842092 12.409991 -28.670627 9.891148 0.243357 25.807375 16.133475 4.444209 13.146501 1.908902 -0.087550 5.250985 
0.000000 0.000000 0.000000 -12.033988 1.161505 1.467551 -0.104252 6.688534 -0.492174 -3.827528 12.455983 -28.465121 10.014332 0.136097 26.299790 15.843269 4.371233 12.897564 2.034603 -0.099435 5.597768 
0.000000 0.000000 0.000000 -12.251578 1.386698 1.391981 -0.056083 6.683138 -0.314927 -3.586539 12.377647 -28.116856 10.085834 0.064896 26.622184 15.536587 4.280008 12.758442 2.311105 -0.128392 6.361124 
0.000000 0.000000 0.000000 -12.383622 1.348131 1.259399 0.026243 6.731070 -0.101080 -3.641820 12.497910 -27.606400 10.087705 0.039068 26.843840 15.234916 4.238986 12.069825 2.811416 -0.190370 7.744752 
0.000000 0.000000 0.000000 -12.311427 1.079284 1.197234 0.113434 6.814662 0.104264 -3.961048 12.837771 -27.053138 10.034709 0.050448 26.976524 15.009202 4.261640 10.880650 2.789416 -0.187373 7.683774 
0.000000 0.000000 0.000000 -12.343394 0.850247 1.118296 0.189927 6.895581 0.342907 -3.909011 13.173799 -26.512265 9.945543 0.095152 26.963890 14.603595 4.168454 10.153816 2.513409 -0.151949 6.920131 
0.000000 0.000000 0.000000 -12.304150 0.700827 1.043249 0.265787 6.985937 0.593622 -3.812323 13.420577 -25.942667 9.818505 0.160471 26.812874 14.169836 4.027342 9.884261 2.678912 -0.172714 7.378118 
0.000000 0.000000 0.000000 -12.071037 0.391413 1.021320 0.335603 7.089436 0.817785 -3.892270 13.822152 -25.408510 9.673932 0.230172 26.623519 13.903825 3.952055 9.567761 2.859419 -0.196954 7.877661 
0.000000 0.000000 0.000000 -11.793349 -0.346779 0.987070 0.393727 7.191820 1.033685 -3.935296 14.691580 -24.949715 9.541156 0.294764 26.520796 13.555154 3.853404 9.066606 2.928518 -0.206628 8.069131 
0.000000 0.000000 0.000000 -11.572311 -0.898830 0.851599 0.469980 7.279099 1.263848 -3.979471 15.364473 -24.369384 9.415487 0.347837 26.412639 13.270294 3.775915 8.599696 2.863217 -0.197452 7.888326 
0.000000 0.000000 0.000000 -11.400106 -0.842494 0.742016 0.545623 7.342094 1.488540 -3.951807 15.374445 -23.744990 9.282318 0.402889 26.182098 13.117531 3.729249 8.481099 2.751215 -0.182192 7.577949 
0.000000 0.000000 0.000000 -10.959234 -0.786730 0.729248 0.612593 7.404601 1.680120 -4.163979 15.371513 -23.170775 9.140147 0.465572 25.952736 12.820734 3.634540 8.272009 2.773116 -0.185185 7.638831 
0.000000 0.000000 0.000000 -10.459520 -1.001234 0.668698 0.685067 7.467904 1.885357 -4.355221 15.678861 -22.558522 9.009154 0.528135 25.815832 12.252453 3.449302 7.747084 2.892518 -0.201542 7.969319 
